<?xml version="1.0" encoding="UTF-8"?>
<svg version="1.1" xmlns="http://www.w3.org/2000/svg" width="500" height="500">
<path d="M0 0 C165 0 330 0 500 0 C500 165 500 330 500 500 C335 500 170 500 0 500 C0 335 0 170 0 0 Z " fill="#FEFEFE" transform="translate(0,0)"/>
<path d="M0 0 C1.76832571 -0.00298657 1.76832571 -0.00298657 3.57237518 -0.00603348 C4.85836581 -0.00312064 6.14435644 -0.0002078 7.46931648 0.00279331 C8.85630314 0.00235706 10.24328971 0.00148115 11.63027585 0.00020415 C15.43625754 -0.00203018 19.24221106 0.00196596 23.04818916 0.00698221 C27.15446153 0.01130175 31.26073231 0.00983921 35.3670063 0.00907993 C42.47964415 0.00855565 49.59227283 0.01169245 56.70490837 0.01731777 C66.98857801 0.02544574 77.27224322 0.02804933 87.55591573 0.02930576 C104.24060367 0.03149424 120.92528672 0.0381488 137.609972 0.04760838 C153.81732852 0.05678777 170.02468372 0.06386603 186.23204231 0.06811619 C187.23110949 0.06837891 188.23017667 0.06864164 189.25951861 0.06891232 C194.27155866 0.07021736 199.28359873 0.07148107 204.2956388 0.07272422 C245.87372726 0.08309047 287.45181021 0.1007776 329.02989388 0.12304783 C329.02989388 6.39304783 329.02989388 12.66304783 329.02989388 19.12304783 C293.38989388 19.12304783 257.74989388 19.12304783 221.02989388 19.12304783 C221.02989388 105.25304783 221.02989388 191.38304783 221.02989388 280.12304783 C215.08989388 280.12304783 209.14989388 280.12304783 203.02989388 280.12304783 C202.02989388 279.12304783 202.02989388 279.12304783 201.90569538 277.33172172 C201.9060751 276.54228316 201.90645482 275.75284459 201.90684605 274.93948364 C201.904855 274.03180974 201.90286395 273.12413585 201.90081257 272.18895668 C201.90372541 271.18022296 201.90663825 270.17148925 201.90963936 269.13218784 C201.90835772 267.53832079 201.90835772 267.53832079 201.90705019 265.91225439 C201.90539223 262.32226453 201.91092191 258.73232055 201.91636848 255.14233494 C201.91665031 252.58064367 201.91649271 250.01895231 201.91592598 247.45726109 C201.91569765 241.92696064 201.91854918 236.39667519 201.92416382 230.86637783 C201.93227646 222.87040978 201.9348938 214.87444745 201.93615181 206.87847573 C201.9383427 193.90685526 201.94500379 180.93524106 201.95445442 167.963624 C201.96362758 155.35978317 201.97069742 142.75594405 201.97496223 130.15210056 C201.97523023 129.36781777 201.97549823 128.58353499 201.97577435 127.77548605 C201.97785366 121.64226074 201.97981062 115.50903539 201.98172891 109.37581003 C201.99116972 79.2915502 202.01128633 49.20730608 202.02989388 19.12304783 C145.59989388 19.61804783 145.59989388 19.61804783 88.02989388 20.12304783 C92.31989388 23.42304783 96.60989388 26.72304783 101.02989388 30.12304783 C105.52948406 33.95603206 109.81383945 37.98355457 114.02989388 42.12304783 C114.54439095 42.626749 115.05888802 43.13045017 115.58897591 43.64941502 C142.15280965 70.03621274 154.22241491 105.40794735 154.37047005 142.30322361 C154.3848088 147.88403722 154.36312742 153.46448694 154.33407569 159.04521894 C154.31510821 163.31324304 154.31354286 167.58127593 154.30999947 171.84933567 C154.30073717 179.90238688 154.27620365 187.95531346 154.245951 196.0083102 C154.21222401 205.18870457 154.19587534 214.36910541 154.18086469 223.54954648 C154.14964771 242.40745245 154.09638629 261.26523547 154.02989388 280.12304783 C147.75989388 280.12304783 141.48989388 280.12304783 135.02989388 280.12304783 C134.53489388 245.96804783 134.53489388 245.96804783 134.02989388 211.12304783 C130.72989388 216.40304783 127.42989388 221.68304783 124.02989388 227.12304783 C121.759289 229.94291349 119.66919093 232.46227715 117.15489388 234.99804783 C116.56176399 235.61188328 115.96863411 236.22571873 115.35753059 236.85815525 C98.81412481 253.71757854 75.54111443 269.59854179 52.34239388 275.18554783 C51.71139778 275.34603611 51.08040169 275.50652439 50.4302845 275.67187595 C48.30389012 276.19558733 46.1719314 276.66745929 44.02989388 277.12304783 C43.19127815 277.30545017 42.35266243 277.48785252 41.48863411 277.6757822 C32.17451523 279.47679696 22.9180934 279.52087588 13.46739388 279.49804783 C12.62262489 279.49750401 11.77785591 279.49696018 10.90748787 279.49639988 C-1.4661721 279.45971892 -13.1094576 278.9438108 -24.97010612 275.12304783 C-26.03914177 274.80158787 -26.03914177 274.80158787 -27.12977409 274.47363377 C-48.89040246 267.87193287 -66.71763564 255.79340977 -82.97010612 240.12304783 C-84.10319206 239.08470798 -84.10319206 239.08470798 -85.25916862 238.02539158 C-100.90344106 223.26288723 -112.00716205 204.69421004 -118.90760612 184.43554783 C-119.17814812 183.64180759 -119.44869011 182.84806736 -119.72743034 182.03027439 C-124.17341639 168.06361942 -125.4857991 154.52346373 -125.41615105 139.96045017 C-125.40763547 137.2573637 -125.4365418 134.55639666 -125.468153 131.85351658 C-125.61458728 95.53905463 -109.4246021 66.8345506 -84.97010612 41.12304783 C-84.390028 40.49011814 -83.80994987 39.85718845 -83.21229362 39.20507908 C-63.04639411 17.87381352 -29.85385233 -0.01116449 0 0 Z " fill="#FEFEFE" transform="translate(147.97010612487793,109.87695217132568)"/>
<path d="M0 0 C1.76832571 -0.00298657 1.76832571 -0.00298657 3.57237518 -0.00603348 C4.85836581 -0.00312064 6.14435644 -0.0002078 7.46931648 0.00279331 C8.85630314 0.00235706 10.24328971 0.00148115 11.63027585 0.00020415 C15.43625754 -0.00203018 19.24221106 0.00196596 23.04818916 0.00698221 C27.15446153 0.01130175 31.26073231 0.00983921 35.3670063 0.00907993 C42.47964415 0.00855565 49.59227283 0.01169245 56.70490837 0.01731777 C66.98857801 0.02544574 77.27224322 0.02804933 87.55591573 0.02930576 C104.24060367 0.03149424 120.92528672 0.0381488 137.609972 0.04760838 C153.81732852 0.05678777 170.02468372 0.06386603 186.23204231 0.06811619 C187.23110949 0.06837891 188.23017667 0.06864164 189.25951861 0.06891232 C194.27155866 0.07021736 199.28359873 0.07148107 204.2956388 0.07272422 C245.87372726 0.08309047 287.45181021 0.1007776 329.02989388 0.12304783 C329.02989388 6.39304783 329.02989388 12.66304783 329.02989388 19.12304783 C293.38989388 19.12304783 257.74989388 19.12304783 221.02989388 19.12304783 C221.02989388 105.25304783 221.02989388 191.38304783 221.02989388 280.12304783 C215.08989388 280.12304783 209.14989388 280.12304783 203.02989388 280.12304783 C202.02989388 279.12304783 202.02989388 279.12304783 201.90569538 277.33172172 C201.9060751 276.54228316 201.90645482 275.75284459 201.90684605 274.93948364 C201.904855 274.03180974 201.90286395 273.12413585 201.90081257 272.18895668 C201.90372541 271.18022296 201.90663825 270.17148925 201.90963936 269.13218784 C201.90835772 267.53832079 201.90835772 267.53832079 201.90705019 265.91225439 C201.90539223 262.32226453 201.91092191 258.73232055 201.91636848 255.14233494 C201.91665031 252.58064367 201.91649271 250.01895231 201.91592598 247.45726109 C201.91569765 241.92696064 201.91854918 236.39667519 201.92416382 230.86637783 C201.93227646 222.87040978 201.9348938 214.87444745 201.93615181 206.87847573 C201.9383427 193.90685526 201.94500379 180.93524106 201.95445442 167.963624 C201.96362758 155.35978317 201.97069742 142.75594405 201.97496223 130.15210056 C201.97523023 129.36781777 201.97549823 128.58353499 201.97577435 127.77548605 C201.97785366 121.64226074 201.97981062 115.50903539 201.98172891 109.37581003 C201.99116972 79.2915502 202.01128633 49.20730608 202.02989388 19.12304783 C145.59989388 19.61804783 145.59989388 19.61804783 88.02989388 20.12304783 C92.31989388 23.42304783 96.60989388 26.72304783 101.02989388 30.12304783 C105.52948406 33.95603206 109.81383945 37.98355457 114.02989388 42.12304783 C114.54439095 42.626749 115.05888802 43.13045017 115.58897591 43.64941502 C142.15280965 70.03621274 154.22241491 105.40794735 154.37047005 142.30322361 C154.3848088 147.88403722 154.36312742 153.46448694 154.33407569 159.04521894 C154.31510821 163.31324304 154.31354286 167.58127593 154.30999947 171.84933567 C154.30073717 179.90238688 154.27620365 187.95531346 154.245951 196.0083102 C154.21222401 205.18870457 154.19587534 214.36910541 154.18086469 223.54954648 C154.14964771 242.40745245 154.09638629 261.26523547 154.02989388 280.12304783 C147.75989388 280.12304783 141.48989388 280.12304783 135.02989388 280.12304783 C134.53489388 245.96804783 134.53489388 245.96804783 134.02989388 211.12304783 C130.72989388 216.40304783 127.42989388 221.68304783 124.02989388 227.12304783 C121.759289 229.94291349 119.66919093 232.46227715 117.15489388 234.99804783 C116.56176399 235.61188328 115.96863411 236.22571873 115.35753059 236.85815525 C98.81412481 253.71757854 75.54111443 269.59854179 52.34239388 275.18554783 C51.71139778 275.34603611 51.08040169 275.50652439 50.4302845 275.67187595 C48.30389012 276.19558733 46.1719314 276.66745929 44.02989388 277.12304783 C43.19127815 277.30545017 42.35266243 277.48785252 41.48863411 277.6757822 C32.17451523 279.47679696 22.9180934 279.52087588 13.46739388 279.49804783 C12.62262489 279.49750401 11.77785591 279.49696018 10.90748787 279.49639988 C-1.4661721 279.45971892 -13.1094576 278.9438108 -24.97010612 275.12304783 C-26.03914177 274.80158787 -26.03914177 274.80158787 -27.12977409 274.47363377 C-48.89040246 267.87193287 -66.71763564 255.79340977 -82.97010612 240.12304783 C-84.10319206 239.08470798 -84.10319206 239.08470798 -85.25916862 238.02539158 C-100.90344106 223.26288723 -112.00716205 204.69421004 -118.90760612 184.43554783 C-119.17814812 183.64180759 -119.44869011 182.84806736 -119.72743034 182.03027439 C-124.17341639 168.06361942 -125.4857991 154.52346373 -125.41615105 139.96045017 C-125.40763547 137.2573637 -125.4365418 134.55639666 -125.468153 131.85351658 C-125.61458728 95.53905463 -109.4246021 66.8345506 -84.97010612 41.12304783 C-84.390028 40.49011814 -83.80994987 39.85718845 -83.21229362 39.20507908 C-63.04639411 17.87381352 -29.85385233 -0.01116449 0 0 Z M-71.75526237 53.97461033 C-94.15706386 78.77478236 -106.2648114 105.86562447 -106.40760612 139.24804783 C-106.4139608 140.01032688 -106.42031548 140.77260593 -106.42686272 141.55798435 C-106.58926405 172.94995208 -95.79139407 199.55890752 -73.97010612 222.12304783 C-73.21600456 222.92871189 -72.461903 223.73437595 -71.68494987 224.56445408 C-62.44368331 234.20824405 -51.47295122 241.44492548 -39.97010612 248.12304783 C-39.20955925 248.5845322 -38.44901237 249.04601658 -37.66541862 249.52148533 C-31.89442973 252.74584567 -25.72415197 254.5365625 -19.40760612 256.37304783 C-18.52073112 256.63166599 -17.63385612 256.89028416 -16.72010612 257.15673923 C-6.39556766 260.03127177 3.69404596 260.36103414 14.35630989 260.41821384 C15.83459783 260.42967344 17.31284639 260.45002888 18.7908802 260.47973728 C29.82333037 260.70026309 39.47129439 259.327525 50.02989388 256.12304783 C50.86367561 255.87143894 51.69745735 255.61983006 52.5565052 255.36059666 C66.58729662 250.83339947 78.90131009 243.79365795 90.02989388 234.12304783 C90.83813606 233.44757908 91.64637825 232.77211033 92.47911263 232.07617283 C102.71993674 223.26617029 110.96733068 212.99872801 117.97130013 201.48632908 C119.23262576 199.42560541 120.54306191 197.39281076 121.93223763 195.41601658 C132.28992549 179.9361461 135.44881432 156.86486406 135.34239388 138.56054783 C135.3339344 137.00690525 135.3339344 137.00690525 135.32530403 135.42187595 C134.82432947 103.14125774 121.99789423 76.50860285 99.18297005 53.92212009 C73.13830749 28.7335707 43.09502674 18.60002448 7.41270638 18.90820408 C-22.80206485 19.52569306 -50.78859144 32.22799758 -71.75526237 53.97461033 Z " fill="#86BE1D" transform="translate(147.97010612487793,109.87695217132568)"/>
<path d="M0 0 C0.99 0.33 1.98 0.66 3 1 C3 85.48 3 169.96 3 257 C8.62103443 258.2941742 8.62103443 258.2941742 17 258 C17 172.86 17 87.72 17 0 C17.66 0 18.32 0 19 0 C19 86.13 19 172.26 19 261 C13.06 261 7.12 261 1 261 C0 260 0 260 -0.1241985 258.20867389 C-0.12381878 257.41923533 -0.12343906 256.62979676 -0.12304783 255.81643581 C-0.12503888 254.90876192 -0.12702993 254.00108802 -0.12908131 253.06590885 C-0.12616847 252.05717513 -0.12325563 251.04844142 -0.12025452 250.00914001 C-0.12110894 248.94656198 -0.12196337 247.88398394 -0.12284368 246.78920656 C-0.12450164 243.1992167 -0.11897196 239.60927272 -0.11352539 236.01928711 C-0.11324356 233.45759584 -0.11340117 230.89590448 -0.1139679 228.33421326 C-0.11419622 222.80391281 -0.11134469 217.27362736 -0.10573006 211.74333 C-0.09761742 203.74736196 -0.09500008 195.75139962 -0.09374207 187.7554279 C-0.09155117 174.78380743 -0.08489008 161.81219324 -0.07543945 148.84057617 C-0.0662663 136.23673535 -0.05918499 123.63289622 -0.05493164 111.02905273 C-0.05466892 110.25269661 -0.05440619 109.47634048 -0.05413551 108.67645841 C-0.05283051 104.78187053 -0.05156679 100.88728264 -0.05032361 96.99269474 C-0.03994983 64.66179193 -0.02233051 32.33089683 0 0 Z " fill="#C4D129" transform="translate(350,129)"/>
<path d="M0 0 C35.64 0 71.28 0 108 0 C107.67 0.66 107.34 1.32 107 2 C72.35 2 37.7 2 2 2 C2 87.47 2 172.94 2 261 C1.34 261 0.68 261 0 261 C0 174.87 0 88.74 0 0 Z " fill="#F8FBBE" transform="translate(369,129)"/>
<path d="M0 0 C1.216875 -0.04125 2.43375 -0.0825 3.6875 -0.125 C8.33456874 -0.21121649 11.75562901 1.18098386 16 3 C16 2.34 16 1.68 16 1 C18.97 1.33 21.94 1.66 25 2 C25 2.99 25 3.98 25 5 C28.22799293 6.73815004 31.47027167 8.00246808 35 9 C35.66 8.67 36.32 8.34 37 8 C37 8.66 37 9.32 37 10 C37.66 10 38.32 10 39 10 C39 10.66 39 11.32 39 12 C40.175625 12.1546875 40.175625 12.1546875 41.375 12.3125 C44 13 44 13 46 16 C47.32 16 48.64 16 50 16 C50 16.99 50 17.98 50 19 C51.98 19.99 51.98 19.99 54 21 C54 21.66 54 22.32 54 23 C58.06368679 23.77403558 61.86425173 24.0984702 66 24 C67.4606285 26.64738916 68 27.89448334 68 31 C69.134375 31.391875 70.26875 31.78375 71.4375 32.1875 C75 34 75 34 75.9375 36.6875 C75.9684375 37.8321875 75.9684375 37.8321875 76 39 C75.01 39.33 74.02 39.66 73 40 C72.67 39.01 72.34 38.02 72 37 C70.29763803 36.2583156 68.59162872 35.52316907 66.86328125 34.84423828 C63.9714339 33.53396468 61.8538609 31.54447606 59.5 29.4375 C33.21289016 6.774895 3.05541922 0.6880058 -31 2 C-59.82288826 4.1903827 -85.14017711 18.51955764 -105 39 C-104.08911246 32.85150909 -99.20126095 29.13202102 -94.78125 25.234375 C-92.85451154 23.89917905 -91.28994564 23.42183209 -89 23 C-88.67 20.69 -88.34 18.38 -88 16 C-85 15 -85 15 -82.8125 15.9375 C-81.9153125 16.4634375 -81.9153125 16.4634375 -81 17 C-81 16.34 -81 15.68 -81 15 C-77.10793457 11.10793457 -74.58421375 9.78836061 -69.12353516 8.54052734 C-66.46667542 7.86424688 -63.96550389 6.86089676 -61.42358398 5.84228516 C-44.59774312 -0.76395156 -17.49917533 -5.83305844 0 0 Z " fill="#64B476" transform="translate(179,128)"/>
<path d="M0 0 C1.2065625 0.0309375 1.2065625 0.0309375 2.4375 0.0625 C-8.89001891 14.0026852 -23.856544 22.7538774 -39.5625 31.0625 C-40.20493652 31.40571289 -40.84737305 31.74892578 -41.50927734 32.10253906 C-50.14782944 36.64604987 -59.03553544 39.1560538 -68.5625 41.0625 C-69.39241455 41.24055176 -70.2223291 41.41860352 -71.07739258 41.60205078 C-80.40407524 43.40846496 -89.66111435 43.46035991 -99.125 43.4375 C-99.96976898 43.43695618 -100.81453796 43.43641235 -101.68490601 43.43585205 C-114.05856597 43.3991711 -125.70185148 42.88326297 -137.5625 39.0625 C-138.27519043 38.84819336 -138.98788086 38.63388672 -139.72216797 38.41308594 C-157.71428212 32.95467021 -175.46354362 23.77014395 -188.5625 10.0625 C-181.9193161 11.6919602 -181.9193161 11.6919602 -179.9375 13.75 C-179.48375 14.183125 -179.03 14.61625 -178.5625 15.0625 C-175.90783951 14.83206136 -175.90783951 14.83206136 -173.5625 14.0625 C-173.2325 14.7225 -172.9025 15.3825 -172.5625 16.0625 C-173.2225 16.0625 -173.8825 16.0625 -174.5625 16.0625 C-173.9025 17.3825 -173.2425 18.7025 -172.5625 20.0625 C-171.5725 20.0625 -170.5825 20.0625 -169.5625 20.0625 C-168.9025 21.0525 -168.2425 22.0425 -167.5625 23.0625 C-166.9025 22.7325 -166.2425 22.4025 -165.5625 22.0625 C-164.9025 23.0525 -164.2425 24.0425 -163.5625 25.0625 C-160.49693402 25.79593428 -160.49693402 25.79593428 -157.5625 26.0625 C-157.2325 25.4025 -156.9025 24.7425 -156.5625 24.0625 C-156.5625 25.7125 -156.5625 27.3625 -156.5625 29.0625 C-155.2425 29.3925 -153.9225 29.7225 -152.5625 30.0625 C-152.5625 30.7225 -152.5625 31.3825 -152.5625 32.0625 C-149.409132 32.76324844 -146.83525026 33.0625 -143.5625 33.0625 C-143.2325 33.7225 -142.9025 34.3825 -142.5625 35.0625 C-141.5725 35.0625 -140.5825 35.0625 -139.5625 35.0625 C-139.5625 35.7225 -139.5625 36.3825 -139.5625 37.0625 C-137.2525 37.0625 -134.9425 37.0625 -132.5625 37.0625 C-132.5625 37.7225 -132.5625 38.3825 -132.5625 39.0625 C-131.469375 39.041875 -130.37625 39.02125 -129.25 39 C-125.5625 39.0625 -125.5625 39.0625 -122.5625 40.0625 C-121.18868345 40.12025961 -119.81210148 40.12417799 -118.4375 40.08984375 C-117.64859375 40.07759766 -116.8596875 40.06535156 -116.046875 40.05273438 C-114.39053752 40.01757627 -112.73427833 39.97851312 -111.078125 39.93554688 C-110.28921875 39.92458984 -109.5003125 39.91363281 -108.6875 39.90234375 C-107.96820313 39.88550537 -107.24890625 39.86866699 -106.5078125 39.85131836 C-104.5625 40.0625 -104.5625 40.0625 -101.5625 42.0625 C-101.5625 41.4025 -101.5625 40.7425 -101.5625 40.0625 C-100.94375 40.2275 -100.325 40.3925 -99.6875 40.5625 C-94.98839775 41.31435636 -88.92310244 42.24280122 -84.5625 40.0625 C-81.66621 39.68991194 -78.77918861 39.35823281 -75.875 39.0625 C-70.41883731 38.49331595 -64.98816276 37.87598625 -59.5625 37.0625 C-59.2325 35.4125 -58.9025 33.7625 -58.5625 32.0625 C-57.9025 32.0625 -57.2425 32.0625 -56.5625 32.0625 C-56.5625 32.7225 -56.5625 33.3825 -56.5625 34.0625 C-53.69525314 33.48905063 -52.7010485 33.2010485 -50.5625 31.0625 C-49.9025 31.0625 -49.2425 31.0625 -48.5625 31.0625 C-47.5725 30.5675 -47.5725 30.5675 -46.5625 30.0625 C-44.4375 30.5 -44.4375 30.5 -42.5625 31.0625 C-42.2325 30.0725 -41.9025 29.0825 -41.5625 28.0625 C-38.5925 27.5675 -38.5925 27.5675 -35.5625 27.0625 C-35.2325 26.0725 -34.9025 25.0825 -34.5625 24.0625 C-33.5725 23.753125 -32.5825 23.44375 -31.5625 23.125 C-30.5725 22.774375 -29.5825 22.42375 -28.5625 22.0625 C-27.59372943 20.03006452 -27.59372943 20.03006452 -27.5625 18.0625 C-26.9025 18.0625 -26.2425 18.0625 -25.5625 18.0625 C-25.5625 17.0725 -25.5625 16.0825 -25.5625 15.0625 C-24.1703125 15.4028125 -24.1703125 15.4028125 -22.75 15.75 C-21.1721875 15.9046875 -21.1721875 15.9046875 -19.5625 16.0625 C-17.95838754 14.70844139 -17.95838754 14.70844139 -16.5625 13.0625 C-13.875 12.375 -13.875 12.375 -11.5625 12.0625 C-11.5625 11.0725 -11.5625 10.0825 -11.5625 9.0625 C-10.9025 9.0625 -10.2425 9.0625 -9.5625 9.0625 C-9.2325 8.0725 -8.9025 7.0825 -8.5625 6.0625 C-7.5725 6.3925 -6.5825 6.7225 -5.5625 7.0625 C-5.253125 6.093125 -4.94375 5.12375 -4.625 4.125 C-3.22113454 0.07856426 -3.22113454 0.07856426 0 0 Z " fill="#7ABA5A" transform="translate(260.5625,345.9375)"/>
<path d="M0 0 C38.28 0 76.56 0 116 0 C116.33 85.8 116.66 171.6 117 260 C122.94 260.33 128.88 260.66 135 261 C135 261.33 135 261.66 135 262 C131.85418577 262.02888514 128.70840531 262.04675923 125.5625 262.0625 C124.66466797 262.07087891 123.76683594 262.07925781 122.84179688 262.08789062 C121.56079102 262.09272461 121.56079102 262.09272461 120.25390625 262.09765625 C119.06776733 262.10551147 119.06776733 262.10551147 117.85766602 262.11352539 C116 262 116 262 115 261 C114.90350312 259.60821676 114.87628112 258.2115601 114.87695217 256.81643581 C114.87496112 255.90876192 114.87297007 255.00108802 114.87091869 254.06590885 C114.87383153 253.05717513 114.87674437 252.04844142 114.87974548 251.00914001 C114.87889106 249.94656198 114.87803663 248.88398394 114.87715632 247.78920656 C114.87549836 244.1992167 114.88102804 240.60927272 114.88647461 237.01928711 C114.88675644 234.45759584 114.88659883 231.89590448 114.8860321 229.33421326 C114.88580378 223.80391281 114.88865531 218.27362736 114.89426994 212.74333 C114.90238258 204.74736196 114.90499992 196.75139962 114.90625793 188.7554279 C114.90844883 175.78380743 114.91510992 162.81219324 114.92456055 149.84057617 C114.9337337 137.23673535 114.94081501 124.63289622 114.94506836 112.02905273 C114.94533108 111.25269661 114.94559381 110.47634048 114.94586449 109.67645841 C114.94716949 105.78187053 114.94843321 101.88728264 114.94967639 97.99269474 C114.96005017 65.66179093 114.97848909 33.33089879 115 1 C78.7 1 42.4 1 5 1 C5 1.66 5 2.32 5 3 C6.65 3.33 8.3 3.66 10 4 C10 4.66 10 5.32 10 6 C10.66 6 11.32 6 12 6 C11.67 6.99 11.34 7.98 11 9 C9.16384919 7.69144447 7.33114211 6.37805538 5.5 5.0625 C4.4790625 4.33160156 3.458125 3.60070312 2.40625 2.84765625 C1.6121875 2.23792969 0.818125 1.62820312 0 1 C0 0.67 0 0.34 0 0 Z " fill="#FEFED8" transform="translate(234,129)"/>
<path d="M0 0 C1.23671448 -0.00137466 2.47342896 -0.00274933 3.74761963 -0.00416565 C5.10482813 -0.00062724 6.46203638 0.00300756 7.81924438 0.00672913 C9.25853473 0.00701141 10.69782522 0.00685245 12.13711548 0.00628662 C16.03334282 0.00600027 19.92953924 0.0118708 23.82575941 0.01886058 C27.90168061 0.0251211 31.97760256 0.02570005 36.05352783 0.02688599 C43.76693251 0.02999135 51.48032298 0.03819401 59.19372141 0.04823548 C67.9772465 0.05942131 76.76077227 0.06491329 85.5443027 0.06993091 C103.60812595 0.08037729 121.67193598 0.09796133 139.73574829 0.12025452 C139.73574829 0.45025452 139.73574829 0.78025452 139.73574829 1.12025452 C139.01405803 1.12356466 138.29236776 1.12687481 137.5488081 1.13028526 C119.95319585 1.21165958 102.35767255 1.30379881 84.76217937 1.4077816 C76.25298022 1.45781073 67.74379024 1.50425441 59.23452759 1.54212952 C51.81410076 1.5751674 44.39374716 1.61506296 36.97340137 1.66304457 C33.04780443 1.68819282 29.12225534 1.71000792 25.19659996 1.72359848 C21.49396031 1.73652564 17.79148573 1.75869218 14.08893776 1.78763771 C12.09794948 1.80088607 10.1069048 1.80461426 8.11587524 1.80795288 C-5.07796316 1.37951756 -5.07796316 1.37951756 -16.45175171 6.74525452 C-17.04987671 7.52900452 -17.64800171 8.31275452 -18.26425171 9.12025452 C-18.26425171 8.46025452 -18.26425171 7.80025452 -18.26425171 7.12025452 C-24.41368708 7.60830494 -30.7101785 8.21924307 -36.26425171 11.12025452 C-36.59425171 12.11025452 -36.92425171 13.10025452 -37.26425171 14.12025452 C-38.25425171 14.12025452 -39.24425171 14.12025452 -40.26425171 14.12025452 C-41.96957494 16.06034974 -41.96957494 16.06034974 -43.26425171 18.12025452 C-44.13050171 17.81087952 -44.13050171 17.81087952 -45.01425171 17.49525452 C-47.83608745 17.02494856 -48.93308854 17.51255578 -51.26425171 19.12025452 C-51.75925171 20.60525452 -51.75925171 20.60525452 -52.26425171 22.12025452 C-52.92425171 22.12025452 -53.58425171 22.12025452 -54.26425171 22.12025452 C-54.26425171 22.78025452 -54.26425171 23.44025452 -54.26425171 24.12025452 C-55.23362671 24.24400452 -56.20300171 24.36775452 -57.20175171 24.49525452 C-58.21237671 24.70150452 -59.22300171 24.90775452 -60.26425171 25.12025452 C-60.59425171 25.78025452 -60.92425171 26.44025452 -61.26425171 27.12025452 C-62.58425171 27.12025452 -63.90425171 27.12025452 -65.26425171 27.12025452 C-66.30541012 28.42170253 -67.30311305 29.75864141 -68.26425171 31.12025452 C-69.59591978 31.79024136 -70.92944672 32.45653933 -72.26425171 33.12025452 C-73.43838057 34.08687515 -74.58463387 35.08827499 -75.70175171 36.12025452 C-78.40923605 38.5126437 -80.75648338 40.05729442 -84.26425171 41.12025452 C-66.56817362 17.6989747 -29.23747102 -0.02516133 0 0 Z " fill="#65AB54" transform="translate(148.26425170898438,109.87974548339844)"/>
<path d="M0 0 C47.85 0 95.7 0 145 0 C145 6.27 145 12.54 145 19 C109.36 19 73.72 19 37 19 C37 18.34 37 17.68 37 17 C71.98 17 106.96 17 143 17 C143 11.72 143 6.44 143 1 C95.81 1 48.62 1 0 1 C0 0.67 0 0.34 0 0 Z " fill="#D7D533" transform="translate(332,110)"/>
<path d="M0 0 C0.33 0 0.66 0 1 0 C0.25 6.75 0.25 6.75 -2 9 C-2.74923711 10.7265029 -3.49579516 12.45441045 -4.2109375 14.1953125 C-5.2626094 16.60062151 -6.61567602 18.77304404 -8 21 C-9.16829486 23.14187391 -9.95680622 24.70628227 -10.3125 27.125 C-10.539375 27.74375 -10.76625 28.3625 -11 29 C-13.375 30.0625 -13.375 30.0625 -16 31 C-17.8354799 32.33378575 -17.8354799 32.33378575 -19 34 C-19 34.99 -19 35.98 -19 37 C-19.99 37.33 -20.98 37.66 -22 38 C-23.70586575 39.62652316 -25.3777546 41.29006566 -27 43 C-26.67 43.66 -26.34 44.32 -26 45 C-27.7578125 45.94401042 -29.515625 46.88802083 -31.2734375 47.83203125 C-33.30502365 49.04763493 -33.30502365 49.04763493 -35 52 C-35.66 52 -36.32 52 -37 52 C-37.3403125 52.928125 -37.3403125 52.928125 -37.6875 53.875 C-39.39873685 56.64557394 -40.97107345 56.9657324 -44 58 C-44.99 58.66 -45.98 59.32 -47 60 C-47 60.99 -47 61.98 -47 63 C-47.721875 62.79375 -48.44375 62.5875 -49.1875 62.375 C-52.53310006 61.92891999 -54.07978539 62.3425809 -57 64 C-58.34410262 66.01735205 -58.34410262 66.01735205 -59 68 C-59 67.34 -59 66.68 -59 66 C-61.99992729 67.29144978 -61.99992729 67.29144978 -65 69 C-65.33 69.99 -65.66 70.98 -66 72 C-66.86625 71.835 -67.7325 71.67 -68.625 71.5 C-71.81225199 71.02781452 -74.78485027 70.92344882 -78 71 C-75.32696188 68.32696188 -72.24644265 67.58120349 -68.75 66.375 C-56.42999465 61.92155033 -45.91235317 55.61801284 -36 47 C-35.16855469 46.30132812 -34.33710938 45.60265625 -33.48046875 44.8828125 C-19.13265846 32.49653081 -9.05629692 16.45926442 0 0 Z " fill="#68AC36" transform="translate(274,296)"/>
<path d="M0 0 C2 0.875 2 0.875 3.3125 2.9375 C4.03946088 6.04360559 3.69686349 8.31180533 3.26687622 11.43237305 C2.72931073 16.35252645 2.75751113 21.30512988 2.68359375 26.25 C2.66281265 27.4150708 2.64203156 28.5801416 2.62062073 29.78051758 C2.55557378 33.47862211 2.49644994 37.17679376 2.4375 40.875 C2.39427207 43.39193384 2.35065646 45.90886106 2.30664062 48.42578125 C2.19993872 54.57545122 2.09809147 60.72518699 2 66.875 C2.66 66.875 3.32 66.875 4 66.875 C4 67.535 4 68.195 4 68.875 C10.93 69.37 10.93 69.37 18 69.875 C18 70.205 18 70.535 18 70.875 C12.06 70.875 6.12 70.875 0 70.875 C-0.33 48.105 -0.66 25.335 -1 1.875 C-4.3 7.155 -7.6 12.435 -11 17.875 C-16.203125 24.0625 -16.203125 24.0625 -19 26.875 C-19.33 25.885 -19.66 24.895 -20 23.875 C-19.34 23.875 -18.68 23.875 -18 23.875 C-18.226875 23.276875 -18.45375 22.67875 -18.6875 22.0625 C-19 19.875 -19 19.875 -17.8125 18.25 C-16 16.875 -16 16.875 -14.02734375 16.046875 C-11.52680176 14.60147501 -10.9264374 13.35496852 -9.75 10.75 C-9.41484375 10.02554687 -9.0796875 9.30109375 -8.734375 8.5546875 C-8.49203125 8.00039063 -8.2496875 7.44609375 -8 6.875 C-7.34 6.875 -6.68 6.875 -6 6.875 C-6 5.885 -6 4.895 -6 3.875 C-5.34 3.875 -4.68 3.875 -4 3.875 C-4 2.885 -4 1.895 -4 0.875 C-2 -0.125 -2 -0.125 0 0 Z " fill="#72A838" transform="translate(283,319.125)"/>
<path d="M0 0 C2.97 0.33 5.94 0.66 9 1 C9 1.99 9 2.98 9 4 C12.22799293 5.73815004 15.47027167 7.00246808 19 8 C19.66 7.67 20.32 7.34 21 7 C21 7.66 21 8.32 21 9 C21.66 9 22.32 9 23 9 C23 9.66 23 10.32 23 11 C23.78375 11.103125 24.5675 11.20625 25.375 11.3125 C28 12 28 12 30 15 C31.32 15 32.64 15 34 15 C34 15.99 34 16.98 34 18 C35.32 18.66 36.64 19.32 38 20 C38 20.66 38 21.32 38 22 C42.06368679 22.77403558 45.86425173 23.0984702 50 23 C51.4606285 25.64738916 52 26.89448334 52 30 C53.134375 30.391875 54.26875 30.78375 55.4375 31.1875 C59 33 59 33 59.9375 35.6875 C59.958125 36.450625 59.97875 37.21375 60 38 C59.01 38.33 58.02 38.66 57 39 C56.67 38.01 56.34 37.02 56 36 C54.29763803 35.2583156 52.59162872 34.52316907 50.86328125 33.84423828 C47.9714339 32.53396468 45.8538609 30.54447606 43.5 28.4375 C33.47946484 19.80901624 23.17979521 12.92371746 10.72192383 8.33129883 C6.5421375 6.77381001 3.27948064 5.15187439 0 2 C0 1.34 0 0.68 0 0 Z " fill="#6CAE41" transform="translate(195,129)"/>
<path d="M0 0 C0.66 0 1.32 0 2 0 C2 0.66 2 1.32 2 2 C3.32 1.67 4.64 1.34 6 1 C6.33 1.66 6.66 2.32 7 3 C6.34 3.66 5.68 4.32 5 5 C5.66 6.65 6.32 8.3 7 10 C8.32 10 9.64 10 11 10 C11.66 10 12.32 10 13 10 C13.93423645 13.01031744 14.04449911 13.86650268 13 17 C12.34 17 11.68 17 11 17 C11.34444881 19.47266765 11.34444881 19.47266765 12 22 C12.66 22.33 13.32 22.66 14 23 C14.63817067 25.3045052 15.02037323 27.61496323 15.4375 29.96875 C15.623125 30.6390625 15.80875 31.309375 16 32 C16.66 32.33 17.32 32.66 18 33 C17.34 33.99 16.68 34.98 16 36 C17.98 36.33 19.96 36.66 22 37 C21 40 21 40 19 42 C19.18687768 44.47160797 19.48060251 46.81058899 19.875 49.25 C21.41322875 60.05300492 21.92778031 70.38679639 19 81 C18.67 81 18.34 81 18 81 C17.98541748 80.22100342 17.97083496 79.44200684 17.95581055 78.6394043 C17.38817197 51.40278163 15.03730774 28.91533152 1.5390625 4.9140625 C0 2 0 2 0 0 Z " fill="#72AC2E" transform="translate(265,184)"/>
<path d="M0 0 C1.2065625 0.0309375 1.2065625 0.0309375 2.4375 0.0625 C-10.973486 16.5666992 -36.17933123 34.85328054 -57.5625 38.0625 C-59.89551986 38.10074623 -62.22961508 38.10824284 -64.5625 38.0625 C-64.5625 37.7325 -64.5625 37.4025 -64.5625 37.0625 C-62.9125 37.0625 -61.2625 37.0625 -59.5625 37.0625 C-59.2325 35.4125 -58.9025 33.7625 -58.5625 32.0625 C-57.9025 32.0625 -57.2425 32.0625 -56.5625 32.0625 C-56.5625 32.7225 -56.5625 33.3825 -56.5625 34.0625 C-53.69525314 33.48905063 -52.7010485 33.2010485 -50.5625 31.0625 C-49.9025 31.0625 -49.2425 31.0625 -48.5625 31.0625 C-47.9025 30.7325 -47.2425 30.4025 -46.5625 30.0625 C-44.4375 30.5 -44.4375 30.5 -42.5625 31.0625 C-42.2325 30.0725 -41.9025 29.0825 -41.5625 28.0625 C-39.5825 27.7325 -37.6025 27.4025 -35.5625 27.0625 C-35.2325 26.0725 -34.9025 25.0825 -34.5625 24.0625 C-33.0775 23.5984375 -33.0775 23.5984375 -31.5625 23.125 C-30.0775 22.5990625 -30.0775 22.5990625 -28.5625 22.0625 C-27.59372943 20.03006452 -27.59372943 20.03006452 -27.5625 18.0625 C-26.9025 18.0625 -26.2425 18.0625 -25.5625 18.0625 C-25.5625 17.0725 -25.5625 16.0825 -25.5625 15.0625 C-24.634375 15.289375 -23.70625 15.51625 -22.75 15.75 C-21.698125 15.853125 -20.64625 15.95625 -19.5625 16.0625 C-17.95838754 14.70844139 -17.95838754 14.70844139 -16.5625 13.0625 C-13.875 12.375 -13.875 12.375 -11.5625 12.0625 C-11.5625 11.0725 -11.5625 10.0825 -11.5625 9.0625 C-10.9025 9.0625 -10.2425 9.0625 -9.5625 9.0625 C-9.2325 8.0725 -8.9025 7.0825 -8.5625 6.0625 C-7.5725 6.3925 -6.5825 6.7225 -5.5625 7.0625 C-5.253125 6.093125 -4.94375 5.12375 -4.625 4.125 C-3.22113454 0.07856426 -3.22113454 0.07856426 0 0 Z " fill="#68AB35" transform="translate(260.5625,345.9375)"/>
<path d="M0 0 C3.39472607 3.39472607 3.90362862 7.68417493 4.24609566 12.3601141 C4.24425207 13.53355657 4.24240849 14.70699903 4.24050903 15.91600037 C4.24221788 16.57534972 4.24392673 17.23469907 4.24568737 17.9140287 C4.24895801 20.10352549 4.23801917 22.29270962 4.22705078 24.48217773 C4.22648614 26.05954481 4.22680426 27.63691241 4.22793579 29.21427917 C4.22850824 33.48236998 4.21677137 37.75034775 4.20278788 42.01841235 C4.19026257 46.48403518 4.1891086 50.94966077 4.18673706 55.41529846 C4.18052758 63.86534006 4.16412396 72.31532973 4.14403808 80.76534849 C4.12166252 90.38805321 4.11068148 100.01076045 4.10064721 109.63348472 C4.07975727 129.42235209 4.04459163 149.21117277 4 169 C3.67 169 3.34 169 3 169 C2.99668985 168.22015212 2.99337971 167.44030424 2.98996925 166.63682461 C2.90851895 147.60444134 2.81635564 128.57213703 2.71247292 109.53986263 C2.66248928 100.33575516 2.61604553 91.13165596 2.578125 81.92749023 C2.54503932 73.89908055 2.50511843 65.87073791 2.45720994 57.84240252 C2.43210856 53.59697937 2.41028037 49.35159975 2.39665604 45.10612297 C2.38368541 41.09814966 2.36147496 37.09032691 2.33261681 33.08243752 C2.32365671 31.62294025 2.31787843 30.16341883 2.31578636 28.70389557 C2.2993229 18.94999177 1.50524189 9.61988231 0 0 Z " fill="#FBFFDC" transform="translate(299,221)"/>
<path d="M0 0 C11.22420471 4.75166561 20.71193389 18.88441539 27 29 C26.67 29.66 26.34 30.32 26 31 C25.34 31 24.68 31 24 31 C23.75765625 30.43410156 23.5153125 29.86820313 23.265625 29.28515625 C22.76289063 28.18494141 22.76289063 28.18494141 22.25 27.0625 C21.92515625 26.33160156 21.6003125 25.60070312 21.265625 24.84765625 C20.13830628 22.81193356 20.13830628 22.81193356 17.859375 22.24609375 C17.24578125 22.16488281 16.6321875 22.08367187 16 22 C16 21.34 16 20.68 16 20 C14.68 20.33 13.36 20.66 12 21 C12 19.35 12 17.7 12 16 C9.61837991 14.58614089 9.61837991 14.58614089 7 14 C6.34 13.34 5.68 12.68 5 12 C5.375 9.875 5.375 9.875 6 8 C3.66785852 6.79371992 1.50357861 5.8345262 -1 5 C-0.67 3.35 -0.34 1.7 0 0 Z " fill="#68AC31" transform="translate(253,145)"/>
<path d="M0 0 C1.34257524 3.71490345 0.59441307 6.17807091 -0.421875 9.9296875 C-2.42411226 18.73907533 -2.3828911 27.34130674 -2.28125 36.34130859 C-2.24997288 39.12741581 -2.24024804 41.91295274 -2.234375 44.69921875 C-2.19409633 53.83942598 -2.00977564 62.9049743 -1 72 C-1.66 72 -2.32 72 -3 72 C-5.44158869 62.36497417 -5.40601662 52.65878058 -5.42553711 42.78735352 C-5.43737465 39.96736201 -5.48662433 37.14960639 -5.53710938 34.33007812 C-5.64272036 22.10610861 -3.94064957 11.57036094 0 0 Z " fill="#F0F9C7" transform="translate(26,208)"/>
<path d="M0 0 C0 0.99 0 1.98 0 3 C-0.9590625 3.4021875 -0.9590625 3.4021875 -1.9375 3.8125 C-4.33131686 4.88667752 -4.33131686 4.88667752 -5 8 C-5.66 8 -6.32 8 -7 8 C-7 8.66 -7 9.32 -7 10 C-7.969375 10.12375 -8.93875 10.2475 -9.9375 10.375 C-10.948125 10.58125 -11.95875 10.7875 -13 11 C-13.33 11.66 -13.66 12.32 -14 13 C-15.32 13 -16.64 13 -18 13 C-19.04115841 14.30144802 -20.03886134 15.63838689 -21 17 C-22.33166807 17.66998685 -23.66519501 18.33628481 -25 19 C-26.17412886 19.96662063 -27.32038216 20.96802047 -28.4375 22 C-31.14498434 24.39238918 -33.49223168 25.9370399 -37 27 C-30.49846285 18.39502436 -11.71943681 0 0 0 Z " fill="#80BC53" transform="translate(101,124)"/>
<path d="M0 0 C0.33 0 0.66 0 1 0 C2.00184225 4.37167526 2.31733473 6.23835387 0.55151367 10.4765625 C-1.63893312 16.00488987 -1.47812014 21.49638138 -1.51171875 27.375 C-1.52966995 28.5400708 -1.54762115 29.7051416 -1.56611633 30.90551758 C-1.62002508 34.60364227 -1.65405354 38.30163931 -1.6875 42 C-1.72069012 44.51694477 -1.75518134 47.03387274 -1.79101562 49.55078125 C-1.87574051 55.70040632 -1.94417238 61.85004832 -2 68 C-2.33 68 -2.66 68 -3 68 C-3.82478476 62.191224 -4.18551851 56.52781218 -4.23828125 50.6640625 C-4.25038887 49.34672623 -4.25038887 49.34672623 -4.26274109 48.0027771 C-4.27650228 46.14884362 -4.28725963 44.29488566 -4.29516602 42.44091797 C-4.30661227 40.58146511 -4.32694539 38.72204315 -4.35668945 36.86279297 C-4.56166571 24.00310931 -3.37855427 12.42399133 0 0 Z " fill="#9BBE23" transform="translate(27,208)"/>
<path d="M0 0 C0.66 0 1.32 0 2 0 C2 0.99 2 1.98 2 3 C2.99 3 3.98 3 5 3 C5 3.66 5 4.32 5 5 C5.66 5 6.32 5 7 5 C7 5.66 7 6.32 7 7 C8.32 7 9.64 7 11 7 C11 8.65 11 10.3 11 12 C11.99 12 12.98 12 14 12 C14.2475 12.78375 14.495 13.5675 14.75 14.375 C16.15389099 17.32317108 17.00675737 17.9024777 20 19 C20.66 18.01 21.32 17.02 22 16 C23.04449911 19.13349732 22.93423645 19.98968256 22 23 C23.32 23.99 24.64 24.98 26 26 C26.66 25.67 27.32 25.34 28 25 C28.33 26.32 28.66 27.64 29 29 C22.37784622 27.77272826 19.12550493 24.81254886 14.5625 20 C13.91015381 19.33025146 13.25780762 18.66050293 12.58569336 17.97045898 C7.71060817 12.90597938 3.17155196 7.66424787 -1 2 C-0.67 1.34 -0.34 0.68 0 0 Z " fill="#7DBB45" transform="translate(49,329)"/>
<path d="M0 0 C-10.63686266 6.00717838 -24.42662118 5.45383514 -36.25708008 5.33618164 C-38.85463371 5.31210954 -41.45118779 5.31570777 -44.04882812 5.32226562 C-45.7057353 5.31670208 -47.3626382 5.30960063 -49.01953125 5.30078125 C-49.79335648 5.30169266 -50.5671817 5.30260406 -51.36445618 5.30354309 C-56.76878566 5.23121434 -56.76878566 5.23121434 -59 3 C-56.39634072 2.77828448 -53.79303507 2.57215141 -51.1875 2.375 C-50.44951172 2.31054688 -49.71152344 2.24609375 -48.95117188 2.1796875 C-43.33984375 1.7734375 -43.33984375 1.7734375 -40 4 C-40 3.34 -40 2.68 -40 2 C-39.38125 2.165 -38.7625 2.33 -38.125 2.5 C-33.42589775 3.25185636 -27.36060244 4.18030122 -23 2 C-20.06170137 1.60261904 -17.13480036 1.25054921 -14.1875 0.9375 C-13.37990234 0.84662109 -12.57230469 0.75574219 -11.74023438 0.66210938 C-7.80875039 0.23386419 -3.96166969 -0.12053762 0 0 Z " fill="#65B161" transform="translate(199,384)"/>
<path d="M0 0 C18.15 0 36.3 0 55 0 C55 0.33 55 0.66 55 1 C37.51 1 20.02 1 2 1 C2 1.66 2 2.32 2 3 C2.85851562 3.39832031 2.85851562 3.39832031 3.734375 3.8046875 C6.1076012 5.05676891 8.12213286 6.4936352 10.25 8.125 C10.95640625 8.66382813 11.6628125 9.20265625 12.390625 9.7578125 C12.92171875 10.16773438 13.4528125 10.57765625 14 11 C12.625 13.5 12.625 13.5 11 16 C10.34 16 9.68 16 9 16 C8.06576355 12.98968256 7.95550089 12.13349732 9 9 C6.69 8.67 4.38 8.34 2 8 C1.67 6.35 1.34 4.7 1 3 C0.34 3 -0.32 3 -1 3 C-0.67 2.01 -0.34 1.02 0 0 Z " fill="#66A930" transform="translate(232,127)"/>
<path d="M0 0 C0.99 0.495 0.99 0.495 2 1 C2.93407096 5.41560816 2.88987723 8.64529197 2 13 C1.89048315 14.80893443 1.82494971 16.62086759 1.79467773 18.43286133 C1.77473251 19.49358353 1.75478729 20.55430573 1.73423767 21.64717102 C1.71752518 22.7806749 1.70081268 23.91417877 1.68359375 25.08203125 C1.66281265 26.25134689 1.64203156 27.42066254 1.62062073 28.62541199 C1.55532586 32.35438253 1.49633341 36.08342247 1.4375 39.8125 C1.39429571 42.34310609 1.35068081 44.8737052 1.30664062 47.40429688 C1.199665 53.60279158 1.09786152 59.80135506 1 66 C1.66 66 2.32 66 3 66 C3 66.66 3 67.32 3 68 C9.93 68.495 9.93 68.495 17 69 C17 69.33 17 69.66 17 70 C14.35409986 70.02684679 11.70846904 70.04676357 9.0625 70.0625 C8.30775391 70.07087891 7.55300781 70.07925781 6.77539062 70.08789062 C4.85005687 70.09652441 2.92464419 70.05224333 1 70 C0 69 0 69 -0.12025452 66.26023865 C-0.11803391 65.03668167 -0.11581329 63.81312469 -0.11352539 62.55249023 C-0.11367142 61.87934784 -0.11381744 61.20620544 -0.1139679 60.51266479 C-0.11326878 58.27794216 -0.10547652 56.0433019 -0.09765625 53.80859375 C-0.09579206 52.26302638 -0.09436816 50.71745843 -0.09336853 49.17189026 C-0.0895434 45.09642923 -0.07971317 41.02100363 -0.06866455 36.94555664 C-0.05845032 32.78988118 -0.05387089 28.63420001 -0.04882812 24.47851562 C-0.03809089 16.31899413 -0.02101454 8.15950147 0 0 Z " fill="#73AE1B" transform="translate(284,320)"/>
<path d="M0 0 C1.08796875 -0.00386719 2.1759375 -0.00773437 3.296875 -0.01171875 C4.3384375 -0.01042969 5.38 -0.00914063 6.453125 -0.0078125 C7.39833008 -0.00668457 8.34353516 -0.00555664 9.31738281 -0.00439453 C11.75 0.125 11.75 0.125 14.75 1.125 C15.925625 1.063125 17.10125 1.00125 18.3125 0.9375 C24.06347239 0.85230041 30.26031857 2.85228427 34.54296875 6.76171875 C34.94128906 7.21160156 35.33960938 7.66148437 35.75 8.125 C34.01363281 7.70927734 34.01363281 7.70927734 32.2421875 7.28515625 C30.70315001 6.91916563 29.16408611 6.55328609 27.625 6.1875 C26.86445313 6.00509766 26.10390625 5.82269531 25.3203125 5.63476562 C24.57265625 5.45751953 23.825 5.28027344 23.0546875 5.09765625 C22.37390137 4.93531494 21.69311523 4.77297363 20.99169922 4.60571289 C15.68550699 3.46784614 10.59210926 2.96057906 5.1640625 2.80859375 C4.11138687 2.7774221 4.11138687 2.7774221 3.03744507 2.74562073 C0.81672042 2.68073676 -1.40411276 2.6215277 -3.625 2.5625 C-5.13933371 2.51925646 -6.65365683 2.4756404 -8.16796875 2.43164062 C-11.86186655 2.32511914 -15.55588354 2.22368323 -19.25 2.125 C-19.25 1.795 -19.25 1.465 -19.25 1.125 C-12.82935231 -0.03071658 -6.51114454 -0.02347768 0 0 Z " fill="#65AE63" transform="translate(164.25,126.875)"/>
<path d="M0 0 C4.04324784 2.17311512 8.03484051 4.35787886 11.859375 6.90234375 C20.78262433 12.80210631 29.7958833 15.97655802 40 19 C38.14453125 20.05078125 38.14453125 20.05078125 36 21 C33.6875 20.1875 33.6875 20.1875 31 19 C29.80375 18.835 28.6075 18.67 27.375 18.5 C24 18 24 18 21 16 C21 15.34 21 14.68 21 14 C20.113125 13.87625 19.22625 13.7525 18.3125 13.625 C15.25398258 13.04792124 12.76356898 12.42126405 10 11 C9.67 10.01 9.34 9.02 9 8 C7.68 8 6.36 8 5 8 C5 6.68 5 5.36 5 4 C3.68 4.33 2.36 4.66 1 5 C0.67 3.35 0.34 1.7 0 0 Z " fill="#65B474" transform="translate(91,347)"/>
<path d="M0 0 C0.33 0 0.66 0 1 0 C1 1.65 1 3.3 1 5 C2.32 5.33 3.64 5.66 5 6 C5 6.66 5 7.32 5 8 C8.153368 8.70074844 10.72724974 9 14 9 C14.33 9.66 14.66 10.32 15 11 C15.99 11 16.98 11 18 11 C18 11.66 18 12.32 18 13 C20.31 13 22.62 13 25 13 C25 13.66 25 14.32 25 15 C26.051875 14.95875 27.10375 14.9175 28.1875 14.875 C31.74010173 14.99147875 33.84866641 15.47208068 37 17 C32.94763645 18.60209722 29.24865898 17.43126055 25.1875 16.4375 C24.4442749 16.25985107 23.7010498 16.08220215 22.93530273 15.89916992 C14.66286608 13.81943847 6.63446681 10.8172334 -1 7 C-1 6.01 -1 5.02 -1 4 C-1.66 3.34 -2.32 2.68 -3 2 C-2.01 2 -1.02 2 0 2 C0 1.34 0 0.68 0 0 Z " fill="#6EB887" transform="translate(103,370)"/>
<path d="M0 0 C0.99 0.33 1.98 0.66 3 1 C2.69729006 4.2898288 2.30473924 5.69698245 -0.07421875 8.0625 C-0.93660156 8.701875 -1.79898438 9.34125 -2.6875 10 C-3.59242187 10.68707031 -4.49734375 11.37414062 -5.4296875 12.08203125 C-6.27789062 12.71496094 -7.12609375 13.34789062 -8 14 C-11.91078916 17.11352527 -15.51920073 20.41682428 -19 24 C-18.08911246 17.85150909 -13.20126095 14.13202102 -8.78125 10.234375 C-6.85451154 8.89917905 -5.28994564 8.42183209 -3 8 C-2.87625 6.865625 -2.7525 5.73125 -2.625 4.5625 C-2.315625 2.7990625 -2.315625 2.7990625 -2 1 C-1.34 0.67 -0.68 0.34 0 0 Z " fill="#75BA64" transform="translate(93,143)"/>
<path d="M0 0 C0 0.66 0 1.32 0 2 C-3.05807192 3.48845002 -6.12216144 4.96408052 -9.1875 6.4375 C-10.05181641 6.85837891 -10.91613281 7.27925781 -11.80664062 7.71289062 C-12.64775391 8.11572266 -13.48886719 8.51855469 -14.35546875 8.93359375 C-15.12528076 9.30540771 -15.89509277 9.67722168 -16.68823242 10.06030273 C-21.45992312 11.99992017 -25.88549844 12.10028434 -31 12 C-31 11.67 -31 11.34 -31 11 C-29.35 11 -27.7 11 -26 11 C-25.67 9.35 -25.34 7.7 -25 6 C-24.34 6 -23.68 6 -23 6 C-23 6.66 -23 7.32 -23 8 C-20.13275314 7.42655063 -19.1385485 7.1385485 -17 5 C-16.34 5 -15.68 5 -15 5 C-14.34 4.67 -13.68 4.34 -13 4 C-10.875 4.4375 -10.875 4.4375 -9 5 C-8.67 4.01 -8.34 3.02 -8 2 C-5.27366306 0.89786379 -2.95855967 0 0 0 Z " fill="#6CAD48" transform="translate(227,372)"/>
<path d="M0 0 C18.15 0 36.3 0 55 0 C55 0.33 55 0.66 55 1 C38.5 1 22 1 5 1 C5 1.66 5 2.32 5 3 C6.65 3.33 8.3 3.66 10 4 C10 4.66 10 5.32 10 6 C10.66 6 11.32 6 12 6 C11.67 6.99 11.34 7.98 11 9 C9.16384919 7.69144447 7.33114211 6.37805538 5.5 5.0625 C4.4790625 4.33160156 3.458125 3.60070312 2.40625 2.84765625 C1.6121875 2.23792969 0.818125 1.62820312 0 1 C0 0.67 0 0.34 0 0 Z " fill="#F1FEDE" transform="translate(234,129)"/>
<path d="M0 0 C-0.55429688 0.20496094 -1.10859375 0.40992188 -1.6796875 0.62109375 C-2.40414062 0.89050781 -3.12859375 1.15992188 -3.875 1.4375 C-4.59429687 1.70433594 -5.31359375 1.97117187 -6.0546875 2.24609375 C-8.03648845 2.97916854 -8.03648845 2.97916854 -10 4 C-11.35845193 4.08902493 -12.72115974 4.11760132 -14.08251953 4.11352539 C-15.34360031 4.11341209 -15.34360031 4.11341209 -16.63015747 4.11329651 C-17.99272171 4.10555458 -17.99272171 4.10555458 -19.3828125 4.09765625 C-20.31221649 4.0962413 -21.24162048 4.09482635 -22.19918823 4.09336853 C-25.17449124 4.08776053 -28.14971964 4.07520668 -31.125 4.0625 C-33.13932183 4.05748603 -35.15364484 4.05292295 -37.16796875 4.04882812 C-42.11200802 4.0377885 -47.05599135 4.02051849 -52 4 C-52 3.01 -52 2.02 -52 1 C-50.90123535 1.01047363 -49.8024707 1.02094727 -48.67041016 1.03173828 C-44.55162885 1.06823504 -40.43286153 1.09100732 -36.31396484 1.10986328 C-34.53920072 1.11985378 -32.76445277 1.13345081 -30.98974609 1.15087891 C-18.32198655 1.43159705 -18.32198655 1.43159705 -5.88818359 -0.66455078 C-3.65331862 -1.06159041 -2.14344078 -0.68415326 0 0 Z " fill="#77BA70" transform="translate(196,368)"/>
<path d="M0 0 C2.22424259 2.84169795 4.15695328 5.80962274 6.05883789 8.87451172 C10.17018349 15.47863294 14.55991792 21.39686369 20 27 C19.01 27.33 18.02 27.66 17 28 C17 27.34 17 26.68 17 26 C15.68 25.67 14.36 25.34 13 25 C13.33 24.34 13.66 23.68 14 23 C13.34 23 12.68 23 12 23 C11.05598958 21.2421875 10.11197917 19.484375 9.16796875 17.7265625 C7.95236507 15.69497635 7.95236507 15.69497635 5 14 C4.67 12.989375 4.34 11.97875 4 10.9375 C3.67 9.968125 3.34 8.99875 3 8 C2.01 7.67 1.02 7.34 0 7 C0 4.69 0 2.38 0 0 Z " fill="#8ABC4E" transform="translate(52,302)"/>
<path d="M0 0 C0 0.99 0 1.98 0 3 C-0.639375 3.268125 -1.27875 3.53625 -1.9375 3.8125 C-4.33131686 4.88667752 -4.33131686 4.88667752 -5 8 C-5.66 8 -6.32 8 -7 8 C-7 8.66 -7 9.32 -7 10 C-7.969375 10.12375 -8.93875 10.2475 -9.9375 10.375 C-10.948125 10.58125 -11.95875 10.7875 -13 11 C-13.33 11.66 -13.66 12.32 -14 13 C-14.66 12.01 -15.32 11.02 -16 10 C-5.03333333 0 -5.03333333 0 0 0 Z " fill="#72B865" transform="translate(101,124)"/>
<path d="M0 0 C0.99 0.66 1.98 1.32 3 2 C3.1875 4.625 3.1875 4.625 3 7 C4.134375 7.391875 5.26875 7.78375 6.4375 8.1875 C10 10 10 10 10.9375 12.6875 C10.958125 13.450625 10.97875 14.21375 11 15 C10.01 15.33 9.02 15.66 8 16 C7.67 15.01 7.34 14.02 7 13 C6.175 12.690625 5.35 12.38125 4.5 12.0625 C3.675 11.711875 2.85 11.36125 2 11 C1.1875 8.875 1.1875 8.875 1 7 C0.34 7 -0.32 7 -1 7 C-1.66 5.02 -2.32 3.04 -3 1 C-2.01 0.67 -1.02 0.34 0 0 Z " fill="#5DAD1F" transform="translate(244,152)"/>
<path d="M0 0 C0.33 0 0.66 0 1 0 C1.01981934 0.73935791 1.03963867 1.47871582 1.06005859 2.24047852 C1.58095755 22.20337067 1.58095755 22.20337067 4 42 C3.34 41.67 2.68 41.34 2 41 C2 39.35 2 37.7 2 36 C1.34 36 0.68 36 0 36 C0 24.12 0 12.24 0 0 Z " fill="#A4C94F" transform="translate(41,240)"/>
<path d="M0 0 C0.66 0.33 1.32 0.66 2 1 C1.96519531 1.88751953 1.96519531 1.88751953 1.9296875 2.79296875 C1.82588536 7.33801959 1.86291643 10.85940059 4 15 C-0.21814817 11.0299782 -3.61227103 6.69159716 -7 2 C-6.030625 1.855625 -5.06125 1.71125 -4.0625 1.5625 C-1.13513227 1.32437659 -1.13513227 1.32437659 0 0 Z " fill="#66AB2F" transform="translate(260,168)"/>
<path d="M0 0 C4.0109976 0.57636036 7.57907703 1.47192245 11.375 2.875 C18.76760278 5.4260997 26.30880483 6.7116272 34 8 C34 8.33 34 8.66 34 9 C27.17819838 10.73191014 21.88409031 8.86718955 15.3125 6.75 C13.7646582 6.28013672 13.7646582 6.28013672 12.18554688 5.80078125 C7.53945179 4.34755748 3.79454391 3.13200449 0 0 Z " fill="#E6FCED" transform="translate(108,380)"/>
<path d="M0 0 C0.33 0.99 0.66 1.98 1 3 C0.0409375 3.4021875 0.0409375 3.4021875 -0.9375 3.8125 C-3.33131686 4.88667752 -3.33131686 4.88667752 -4 8 C-4.86625 7.835 -5.7325 7.67 -6.625 7.5 C-9.81225199 7.02781452 -12.78485027 6.92344882 -16 7 C-13.35478068 4.35478068 -10.33828651 3.55457481 -6.875 2.375 C-6.21628906 2.14554687 -5.55757812 1.91609375 -4.87890625 1.6796875 C-3.25438774 1.11463758 -1.62742029 0.55663723 0 0 Z " fill="#6CB04A" transform="translate(212,360)"/>
<path d="M0 0 C0.66 0 1.32 0 2 0 C2 0.99 2 1.98 2 3 C2.99 3 3.98 3 5 3 C5 3.66 5 4.32 5 5 C5.66 5 6.32 5 7 5 C7 5.66 7 6.32 7 7 C8.32 7 9.64 7 11 7 C10.67 8.65 10.34 10.3 10 12 C9.01 12 8.02 12 7 12 C4.95703125 9.8125 4.95703125 9.8125 2.8125 7 C2.09707031 6.071875 1.38164063 5.14375 0.64453125 4.1875 C0.10183594 3.465625 -0.44085938 2.74375 -1 2 C-0.67 1.34 -0.34 0.68 0 0 Z " fill="#83BD33" transform="translate(49,329)"/>
<path d="M0 0 C5.1588796 2.79725916 10.17342499 5.658525 15 9 C14.01 10.485 14.01 10.485 13 12 C12.01 11.67 11.02 11.34 10 11 C9.67 10.01 9.34 9.02 9 8 C7.68 8 6.36 8 5 8 C5 6.68 5 5.36 5 4 C3.68 4.33 2.36 4.66 1 5 C0.67 3.35 0.34 1.7 0 0 Z " fill="#6EB768" transform="translate(91,347)"/>
<path d="M0 0 C5.03163018 4.29785078 10.02718443 8.63425542 15 13 C11.79604584 13 9.90600261 12.25664978 7 11 C7 10.34 7 9.68 7 9 C6.34 9 5.68 9 5 9 C5 8.34 5 7.68 5 7 C4.360625 6.773125 3.72125 6.54625 3.0625 6.3125 C1 5 1 5 0.25 2.375 C0.1675 1.59125 0.085 0.8075 0 0 Z " fill="#82BE60" transform="translate(72,330)"/>
<path d="M0 0 C0.84498047 0.93392578 0.84498047 0.93392578 1.70703125 1.88671875 C-0.02933594 1.47099609 -0.02933594 1.47099609 -1.80078125 1.046875 C-3.33981874 0.68088438 -4.87888264 0.31500484 -6.41796875 -0.05078125 C-7.17851562 -0.23318359 -7.9390625 -0.41558594 -8.72265625 -0.60351562 C-12.89725309 -1.59318298 -17.04756714 -2.46901104 -21.29296875 -3.11328125 C-21.29296875 -3.44328125 -21.29296875 -3.77328125 -21.29296875 -4.11328125 C-13.65325699 -5.46871398 -6.0253611 -5.55318629 0 0 Z " fill="#74B560" transform="translate(198.29296875,133.11328125)"/>
<path d="M0 0 C-4.17922059 2.4110888 -8.40984045 2.77737766 -13.125 3.4375 C-15.9604689 3.85935525 -15.9604689 3.85935525 -18.171875 5.0859375 C-20.9269792 6.4634896 -23.08598717 5.66227564 -26 5 C-19.03675063 0.35783375 -8.25004758 -0.50510495 0 0 Z " fill="#70BB85" transform="translate(150,110)"/>
<path d="M0 0 C0.33 0 0.66 0 1 0 C1.11664736 7.89313794 1.14283165 15.34702981 -1 23 C-1.66 23 -2.32 23 -3 23 C-3.33 23.66 -3.66 24.32 -4 25 C-3.33182164 19.29129167 -2.46165521 13.65490487 -1.4375 8 C-1.29892578 7.22527344 -1.16035156 6.45054687 -1.01757812 5.65234375 C-0.68023879 3.76789645 -0.34038635 1.8838993 0 0 Z " fill="#89B84D" transform="translate(282,260)"/>
<path d="M0 0 C0.99 0.33 1.98 0.66 3 1 C2.48050781 1.44730469 1.96101563 1.89460937 1.42578125 2.35546875 C-2.52679654 5.78201031 -6.35827082 9.24446679 -10 13 C-9.2529129 7.95716206 -6.05677622 4.97945113 -2.4375 1.625 C-1.633125 1.08875 -0.82875 0.5525 0 0 Z " fill="#83BD62" transform="translate(84,154)"/>
<path d="M0 0 C0.33 0 0.66 0 1 0 C1 1.65 1 3.3 1 5 C2.32 5.33 3.64 5.66 5 6 C5 6.66 5 7.32 5 8 C8.153368 8.70074844 10.72724974 9 14 9 C14 9.66 14 10.32 14 11 C8.33557626 10.63495936 3.99296295 9.9445679 -1 7 C-1 6.01 -1 5.02 -1 4 C-1.66 3.34 -2.32 2.68 -3 2 C-2.01 2 -1.02 2 0 2 C0 1.34 0 0.68 0 0 Z " fill="#69BA72" transform="translate(103,370)"/>
<path d="M0 0 C0.99 0.33 1.98 0.66 3 1 C0.36 4.3 -2.28 7.6 -5 11 C-6.31223496 7.06329512 -5.24296256 4.87511856 -4 1 C-2.68 1.33 -1.36 1.66 0 2 C0 1.34 0 0.68 0 0 Z " fill="#80BB47" transform="translate(70,168)"/>
<path d="M0 0 C0.78375 0.185625 1.5675 0.37125 2.375 0.5625 C4.97089775 1.25962266 4.97089775 1.25962266 7 0 C7.66 0.99 8.32 1.98 9 3 C12.05429073 4.21284876 12.05429073 4.21284876 15 5 C14.67 5.99 14.34 6.98 14 8 C8.76481294 6.56032356 4.36973991 4.18303389 0 1 C0 0.67 0 0.34 0 0 Z " fill="#73B967" transform="translate(88,368)"/>
<path d="M0 0 C0 0.99 0 1.98 0 3 C-0.721875 2.79375 -1.44375 2.5875 -2.1875 2.375 C-5.53310006 1.92891999 -7.07978539 2.3425809 -10 4 C-11.34410262 6.01735205 -11.34410262 6.01735205 -12 8 C-12 7.34 -12 6.68 -12 6 C-12.66 6 -13.32 6 -14 6 C-13 3 -13 3 -10.25 1.375 C-3.20833333 -1.60416667 -3.20833333 -1.60416667 0 0 Z " fill="#64AD36" transform="translate(227,356)"/>
<path d="M0 0 C0.33 0.66 0.66 1.32 1 2 C1.66 2.33 2.32 2.66 3 3 C2.34 3.99 1.68 4.98 1 6 C3.97 6.495 3.97 6.495 7 7 C6 10 6 10 3.9375 11.1875 C3.298125 11.455625 2.65875 11.72375 2 12 C-0.60018816 8.09971775 -0.15085514 4.52565431 0 0 Z " fill="#70AF1B" transform="translate(280,214)"/>
<path d="M0 0 C0.33 0.99 0.66 1.98 1 3 C0.01 3.33 -0.98 3.66 -2 4 C-2.1546875 4.86625 -2.1546875 4.86625 -2.3125 5.75 C-3.40707864 9.33225738 -6.06823206 10.75439052 -9 13 C-9.66 12.67 -10.32 12.34 -11 12 C-7.37 8.04 -3.74 4.08 0 0 Z " fill="#8CBD4D" transform="translate(63,151)"/>
<path d="M0 0 C0.33 0 0.66 0 1 0 C2.38302497 6.03501806 1.61955162 9.37281504 -1 15 C-1.99 15.495 -1.99 15.495 -3 16 C-2.52013969 10.43109483 -1.70084819 5.32932432 0 0 Z " fill="#A2C434" transform="translate(27,208)"/>
<path d="M0 0 C4.2552033 4.2552033 4.125 9.72646601 4.125 15.4375 C4.09314594 17.2918612 4.05479286 19.1461748 4 21 C3.67 21 3.34 21 3 21 C2.01 14.07 1.02 7.14 0 0 Z " fill="#ECF7C7" transform="translate(299,221)"/>
<path d="M0 0 C0.33 1.32 0.66 2.64 1 4 C0.071875 4.3403125 0.071875 4.3403125 -0.875 4.6875 C-3.63791327 6.39400526 -3.83995819 8.02739286 -5 11 C-7.125 12.8125 -7.125 12.8125 -9 14 C-7.65070536 10.16336928 -5.92248975 7.34827431 -3.375 4.1875 C-2.42753906 3.00220703 -2.42753906 3.00220703 -1.4609375 1.79296875 C-0.97882812 1.20128906 -0.49671875 0.60960937 0 0 Z " fill="#96BF46" transform="translate(51,164)"/>
<path d="M0 0 C0.99 0 1.98 0 3 0 C1.35821735 4.77609498 -1.26546702 8.79382904 -4 13 C-4.68707555 10.50935112 -5 8.62113708 -5 6 C-4.360625 5.7525 -3.72125 5.505 -3.0625 5.25 C-0.81258459 4.18437567 -0.81258459 4.18437567 -0.25 1.875 C-0.1675 1.25625 -0.085 0.6375 0 0 Z " fill="#8BBC4A" transform="translate(61,179)"/>
<path d="M0 0 C3.2626876 3.08632611 6.02235218 5.93483504 8 10 C7.67 10.66 7.34 11.32 7 12 C6.34 12 5.68 12 5 12 C4.3490741 10.75264433 3.70448331 9.50198168 3.0625 8.25 C2.70285156 7.55390625 2.34320313 6.8578125 1.97265625 6.140625 C1.04441818 4.09775567 0.46833422 2.18884624 0 0 Z " fill="#76B03F" transform="translate(272,164)"/>
<path d="M0 0 C0 0.99 0 1.98 0 3 C-1.86328125 4.859375 -1.86328125 4.859375 -4.3125 6.75 C-5.11300781 7.38421875 -5.91351563 8.0184375 -6.73828125 8.671875 C-7.48464844 9.11015625 -8.23101562 9.5484375 -9 10 C-9.99 9.67 -10.98 9.34 -12 9 C-8.04 6.03 -4.08 3.06 0 0 Z " fill="#7FBB62" transform="translate(87,131)"/>
<path d="M0 0 C1.2065625 0.0309375 1.2065625 0.0309375 2.4375 0.0625 C1.5294838 1.19449353 0.61066174 2.31782363 -0.3125 3.4375 C-0.82296875 4.06398438 -1.3334375 4.69046875 -1.859375 5.3359375 C-3.64449481 7.14562318 -5.24199644 8.06367455 -7.5625 9.0625 C-7.5625 8.4025 -7.5625 7.7425 -7.5625 7.0625 C-6.9025 7.0625 -6.2425 7.0625 -5.5625 7.0625 C-5.253125 6.093125 -4.94375 5.12375 -4.625 4.125 C-3.22113454 0.07856426 -3.22113454 0.07856426 0 0 Z " fill="#6EAD3E" transform="translate(260.5625,345.9375)"/>
<path d="M0 0 C0.33 0 0.66 0 1 0 C0.7589852 6.14587738 0.7589852 6.14587738 -1.40234375 8.578125 C-2.88046971 9.78844931 -4.43647953 10.90220903 -6 12 C-4.43358249 7.69235185 -2.31663844 3.93828536 0 0 Z " fill="#75B045" transform="translate(274,296)"/>
<path d="M0 0 C1.11375 0.3403125 1.11375 0.3403125 2.25 0.6875 C-5.46428571 6.6875 -5.46428571 6.6875 -8.75 6.6875 C-8.75 6.0275 -8.75 5.3675 -8.75 4.6875 C-8.09 4.6875 -7.43 4.6875 -6.75 4.6875 C-6.75 4.0275 -6.75 3.3675 -6.75 2.6875 C-4.35939287 0.29689287 -3.42334736 -0.38901675 0 0 Z " fill="#72B870" transform="translate(104.75,140.3125)"/>
<path d="M0 0 C2.97 0.33 5.94 0.66 9 1 C9 1.99 9 2.98 9 4 C6.69 4 4.38 4 2 4 C1.34 2.68 0.68 1.36 0 0 Z " fill="#5AB134" transform="translate(195,129)"/>
<path d="M0 0 C3.9252025 3.70090521 6.94580156 7.54959656 10 12 C8.68 11.67 7.36 11.34 6 11 C6 10.34 6 9.68 6 9 C5.34 9 4.68 9 4 9 C0 2.25 0 2.25 0 0 Z " fill="#ECFAD5" transform="translate(49,332)"/>
<path d="M0 0 C1.42944945 2.35438733 2.08661261 3.48032433 1.625 6.25 C1.41875 6.8275 1.2125 7.405 1 8 C0.34 8 -0.32 8 -1 8 C-1 7.34 -1 6.68 -1 6 C-1.66 5.67 -2.32 5.34 -3 5 C-2.67 4.67 -2.34 4.34 -2 4 C-2.66 3.67 -3.32 3.34 -4 3 C-4 2.34 -4 1.68 -4 1 C-2 0 -2 0 0 0 Z " fill="#77B121" transform="translate(287,186)"/>
<path d="M0 0 C0.66 0 1.32 0 2 0 C2 0.66 2 1.32 2 2 C3.32 2.33 4.64 2.66 6 3 C5.01 3 4.02 3 3 3 C3 3.66 3 4.32 3 5 C0.04335481 6.4783226 -2.74229737 6.06032783 -6 6 C-6 5.67 -6 5.34 -6 5 C-4.35 5 -2.7 5 -1 5 C-0.67 3.35 -0.34 1.7 0 0 Z " fill="#60AC3E" transform="translate(202,378)"/>
<path d="M0 0 C-0.66 1.65 -1.32 3.3 -2 5 C-4.475 4.01 -4.475 4.01 -7 3 C-7 2.01 -7 1.02 -7 0 C-4.3333581 -1.33332095 -2.83319697 -0.67102033 0 0 Z " fill="#65B868" transform="translate(108,123)"/>
<path d="M0 0 C0.66 0.33 1.32 0.66 2 1 C0.02 4.63 -1.96 8.26 -4 12 C-5 8 -5 8 -4.0625 5.75 C-3.5365625 4.88375 -3.5365625 4.88375 -3 4 C-2.34 4 -1.68 4 -1 4 C-0.67 2.68 -0.34 1.36 0 0 Z " fill="#F1FDE0" transform="translate(272,296)"/>
<path d="M0 0 C0.556875 0.226875 1.11375 0.45375 1.6875 0.6875 C1.6875 1.3475 1.6875 2.0075 1.6875 2.6875 C0.718125 2.81125 -0.25125 2.935 -1.25 3.0625 C-2.260625 3.26875 -3.27125 3.475 -4.3125 3.6875 C-4.6425 4.3475 -4.9725 5.0075 -5.3125 5.6875 C-5.9725 4.6975 -6.6325 3.7075 -7.3125 2.6875 C-2.88173077 -0.38942308 -2.88173077 -0.38942308 0 0 Z " fill="#67BC4E" transform="translate(92.3125,131.3125)"/>
<path d="M0 0 C2.30153291 2.30153291 2.7577028 3.84875905 3.6875 6.9375 C3.95949219 7.81277344 4.23148438 8.68804687 4.51171875 9.58984375 C5 12 5 12 4 15 C2.35 10.38 0.7 5.76 -1 1 C-0.67 0.67 -0.34 0.34 0 0 Z " fill="#99BD2E" transform="translate(30,292)"/>
<path d="M0 0 C1.65 0 3.3 0 5 0 C4.67 1.65 4.34 3.3 4 5 C3.01 5 2.02 5 1 5 C0.67 3.35 0.34 1.7 0 0 Z " fill="#8EC004" transform="translate(33,299)"/>
<path d="M0 0 C2.02054804 1.64169528 4.02043058 3.30911778 6 5 C6 5.33 6 5.66 6 6 C4.33388095 6.042721 2.66617115 6.04063832 1 6 C0 5 0 5 -0.0625 2.4375 C-0.041875 1.633125 -0.02125 0.82875 0 0 Z " fill="#EEFBDD" transform="translate(59,344)"/>
<path d="M0 0 C0.95465783 2.16967689 1.14401212 3.56328793 0.3984375 5.82421875 C-0.35870385 7.5684743 -1.17609198 9.28627131 -2 11 C-2.66 11 -3.32 11 -4 11 C-3.52269162 9.5410574 -3.04308958 8.08286504 -2.5625 6.625 C-2.29566406 5.81289062 -2.02882813 5.00078125 -1.75390625 4.1640625 C-1 2 -1 2 0 0 Z " fill="#A0C43C" transform="translate(34,190)"/>
<path d="M0 0 C0.66 0 1.32 0 2 0 C2.33 0.99 2.66 1.98 3 3 C3.33 3.66 3.66 4.32 4 5 C2.35 5.66 0.7 6.32 -1 7 C-1.04254356 5.00045254 -1.04080783 2.99958364 -1 1 C-0.67 0.67 -0.34 0.34 0 0 Z " fill="#7DBE2D" transform="translate(60,174)"/>
<path d="M0 0 C1.98 0.66 3.96 1.32 6 2 C6 2.99 6 3.98 6 5 C6.66 5.33 7.32 5.66 8 6 C5 6 5 6 3.61328125 4.6875 C2.40885417 3.125 1.20442708 1.5625 0 0 Z " fill="#7AB34F" transform="translate(246,163)"/>
<path d="M0 0 C2.31 0.66 4.62 1.32 7 2 C7 2.66 7 3.32 7 4 C7.66 4 8.32 4 9 4 C8.67 4.99 8.34 5.98 8 7 C6.66382648 6.02471263 5.3311249 5.04466681 4 4.0625 C3.2575 3.51722656 2.515 2.97195312 1.75 2.41015625 C1.1725 1.94480469 0.595 1.47945312 0 1 C0 0.67 0 0.34 0 0 Z " fill="#DBF3CD" transform="translate(237,131)"/>
<path d="M0 0 C-0.33 1.65 -0.66 3.3 -1 5 C-2.98 4.34 -4.96 3.68 -7 3 C-4.74624683 0.74624683 -3.20799182 0 0 0 Z " fill="#6CBC77" transform="translate(112,119)"/>
<path d="M0 0 C0.66 0 1.32 0 2 0 C2 0.99 2 1.98 2 3 C2.99 3.33 3.98 3.66 5 4 C4.67 5.32 4.34 6.64 4 8 C2.35 5.69 0.7 3.38 -1 1 C-0.67 0.67 -0.34 0.34 0 0 Z " fill="#90BE41" transform="translate(49,329)"/>
<path d="M0 0 C2.375 0.625 2.375 0.625 5 2 C6.3125 5.125 6.3125 5.125 7 8 C3.75700849 5.61042731 1.49097658 3.7952131 0 0 Z " fill="#F2FCDF" transform="translate(64,320)"/>
<path d="M0 0 C0.66 0 1.32 0 2 0 C0.68775452 3.93673644 -0.91910327 6.22719294 -4 9 C-4 8.01 -4 7.02 -4 6 C-3.34 6 -2.68 6 -2 6 C-2 5.01 -2 4.02 -2 3 C-1.34 3 -0.68 3 0 3 C0 2.01 0 1.02 0 0 Z " fill="#E7F7D6" transform="translate(265,308)"/>
<path d="M0 0 C1.0625 1.8125 1.0625 1.8125 2 4 C1.67 4.99 1.34 5.98 1 7 C0.34 7 -0.32 7 -1 7 C-1.33 7.66 -1.66 8.32 -2 9 C-1.125 1.125 -1.125 1.125 0 0 Z " fill="#80B544" transform="translate(280,276)"/>
<path d="M0 0 C0.66 0.33 1.32 0.66 2 1 C1.6875 3.875 1.6875 3.875 1 7 C0.01 7.66 -0.98 8.32 -2 9 C-1.34 6.03 -0.68 3.06 0 0 Z " fill="#6DB015" transform="translate(283,268)"/>
<path d="M0 0 C0.66 0 1.32 0 2 0 C2.93423645 3.01031744 3.04449911 3.86650268 2 7 C1.01 7 0.02 7 -1 7 C-0.67 4.69 -0.34 2.38 0 0 Z " fill="#62B01A" transform="translate(276,194)"/>
<path d="M0 0 C1.9375 0.6875 1.9375 0.6875 4 2 C4.75 4.625 4.75 4.625 5 7 C4.01 7 3.02 7 2 7 C1.34 4.69 0.68 2.38 0 0 Z " fill="#79B131" transform="translate(280,178)"/>
<path d="M0 0 C0 0.66 0 1.32 0 2 C-1.28650706 2.69710731 -2.57940665 3.38242876 -3.875 4.0625 C-4.95394531 4.63677734 -4.95394531 4.63677734 -6.0546875 5.22265625 C-6.69664063 5.47917969 -7.33859375 5.73570312 -8 6 C-8.66 5.67 -9.32 5.34 -10 5 C-8.71186658 4.16121545 -7.41936744 3.32913217 -6.125 2.5 C-5.40570313 2.0359375 -4.68640625 1.571875 -3.9453125 1.09375 C-2 0 -2 0 0 0 Z " fill="#E5FAE1" transform="translate(105,143)"/>
<path d="M0 0 C5.445 1.485 5.445 1.485 11 3 C9.02 3.99 9.02 3.99 7 5 C3.25 3.625 3.25 3.625 0 2 C0 1.34 0 0.68 0 0 Z " fill="#66B583" transform="translate(120,363)"/>
<path d="M0 0 C0.33 0.66 0.66 1.32 1 2 C1.66 2.33 2.32 2.66 3 3 C0.69 4.32 -1.62 5.64 -4 7 C-4 6.34 -4 5.68 -4 5 C-3.34 5 -2.68 5 -2 5 C-1.34 3.35 -0.68 1.7 0 0 Z " fill="#ECFBE3" transform="translate(229,346)"/>
<path d="M0 0 C0.33 0 0.66 0 1 0 C1.1875 3.375 1.1875 3.375 1 7 C0.01 7.66 -0.98 8.32 -2 9 C-1.125 2.25 -1.125 2.25 0 0 Z " fill="#EAF7CF" transform="translate(48,208)"/>
<path d="M0 0 C0.99 0.33 1.98 0.66 3 1 C3 1.99 3 2.98 3 4 C1.68 4.33 0.36 4.66 -1 5 C-1.33 3.68 -1.66 2.36 -2 1 C-1.34 0.67 -0.68 0.34 0 0 Z " fill="#64BB56" transform="translate(93,143)"/>
<path d="M0 0 C-1.375 2 -1.375 2 -3 4 C-3.66 4 -4.32 4 -5 4 C-5.33 2.68 -5.66 1.36 -6 0 C-3.50907189 -1.24546405 -2.58919267 -0.7767578 0 0 Z " fill="#5DAD24" transform="translate(246,139)"/>
</svg>
