<svg xmlns="http://www.w3.org/2000/svg" viewBox="0 0 500 500" width="500" height="500">
  <path d="M0 0 C165 0 330 0 500 0 C500 165 500 330 500 500 C335 500 170 500 0 500 C0 335 0 170 0 0 Z" fill="#FEFEFE" />
  <path d="M0 0 C1.76832571 -0.00298657 1.76832571 -0.00298657 3.57237518 -0.00603348 C4.85836581 -0.00312064 6.14435644 -0.0002078 7.46931648 0.00279331 C8.85630314 0.00235706 10.24328971 0.00148115 11.63027585 0.00020415 C15.43625754 -0.00203018 19.24221106 0.00196596 23.04818916 0.00698221 C27.15446153 0.01130175 31.26073231 0.00983921 35.3670063 0.00907993 C42.47964415 0.00855565 49.59227283 0.01169245 56.70490837 0.01731777 C66.98857801 0.02544574 77.27224322 0.02804933 87.55591573 0.02930576 C104.24060367 0.03149424 120.92528672 0.0381488 137.609972 0.04760838 C153.81732852 0.05678777 170.02468372 0.06386603 186.23204231 0.06811619 C187.23110949 0.06837891 188.23017667 0.06864164 189.25951861 0.06891232 C194.27155866 0.07021736 199.28359873 0.07148107 204.2956388 0.07272422 C245.87372726 0.08309047 287.45181021 0.1007776 329.02989388 0.12304783 C329.02989388 6.39304783 329.02989388 12.66304783 329.02989388 19.12304783 C293.38989388 19.12304783 257.74989388 19.12304783 221.02989388 19.12304783 C221.02989388 105.25304783 221.02989388 191.38304783 221.02989388 280.12304783 C215.08989388 280.12304783 209.14989388 280.12304783 203.02989388 280.12304783 C202.02989388 279.12304783 202.02989388 279.12304783 201.90569538 277.33172172 C201.9060751 276.54228316 201.90645482 275.75284459 201.90684605 274.93948364 C201.904855 274.03180974 201.90286395 273.12413585 201.90081257 272.18895668 C201.90372541 271.18022296 201.90663825 270.17148925 201.90963936 269.13218784 C201.90835772 267.53832079 201.90835772 267.53832079 201.90705019 265.91225439 C201.90539223 262.32226453 201.91092191 258.73232055 201.91636848 255.14233494 C201.91665031 252.58064367 201.91649271 250.01895231 201.91592598 247.45726109 C201.91569765 241.92696064 201.91854918 236.39667519 201.92416382 230.86637783 C201.93227646 222.87040978 201.9348938 214.87444745 201.93615181 206.87847573 C201.9383427 193.90685526 201.94500379 180.93524106 201.95445442 167.963624 C201.96362758 155.35978317 201.97069742 142.75594405 201.97496223 130.15210056 C201.97523023 129.36781777 201.97549823 128.58353499 201.97577435 127.77548605 C201.97785366 121.64226074 201.97981062 115.50903539 201.98172891 109.37581003 C201.99116972 79.2915502 202.01128633 49.20730608 202.02989388 19.12304783 C145.59989388 19.61804783 145.59989388 19.61804783 88.02989388 20.12304783 C92.31989388 23.42304783 96.60989388 26.72304783 101.02989388 30.12304783 C105.52948406 33.95603206 109.81383945 37.98355457 114.02989388 42.12304783 C114.54439095 42.626749 115.05888802 43.13045017 115.58897591 43.64941502 C142.15280965 70.03621274 154.22241491 105.40794735 154.37047005 142.30322361 C154.3848088 147.88403722 154.36312742 153.46448694 154.33407569 159.04521894 C154.31510821 163.31324304 154.31354286 167.58127593 154.30999947 171.84933567 C154.30073717 179.90238688 154.27620365 187.95531346 154.245951 196.0083102 C154.21222401 205.18870457 154.19587534 214.36910541 154.18086469 223.54954648 C154.14964771 242.40745245 154.09638629 261.26523547 154.02989388 280.12304783 C147.75989388 280.12304783 141.48989388 280.12304783 135.02989388 280.12304783 C134.53489388 245.96804783 134.53489388 245.96804783 134.02989388 211.12304783 C130.72989388 216.40304783 127.42989388 221.68304783 124.02989388 227.12304783 C121.759289 229.94291349 119.66919093 232.46227715 117.15489388 234.99804783 C116.56176399 235.61188328 115.96863411 236.22571873 115.35753059 236.85815525 C98.81412481 253.71757854 75.54111443 269.59854179 52.34239388 275.18554783 C51.71139778 275.34603611 51.08040169 275.50652439 50.4302845 275.67187595 C48.30389012 276.19558733 46.1719314 276.66745929 44.02989388 277.12304783 C43.19127815 277.30545017 42.35266243 277.48785252 41.48863411 277.6757822 C32.17451523 279.47679696 22.9180934 279.52087588 13.46739388 279.49804783 C12.62262489 279.49750401 11.77785591 279.49696018 10.90748787 279.49639988 C-1.4661721 279.45971892 -13.1094576 278.9438108 -24.97010612 275.12304783 C-26.03914177 274.80158787 -26.03914177 274.80158787 -27.12977409 274.47363377 C-48.89040246 267.87193287 -66.71763564 255.79340977 -82.97010612 240.12304783 C-84.10319206 239.08470798 -84.10319206 239.08470798 -85.25916862 238.02539158 C-100.90344106 223.26288723 -112.00716205 204.69421004 -118.90760612 184.43554783 C-119.17814812 183.64180759 -119.44869011 182.84806736 -119.72743034 182.03027439 C-124.17341639 168.06361942 -125.4857991 154.52346373 -125.41615105 139.96045017 C-125.40763547 137.2573637 -125.4365418 134.55639666 -125.468153 131.85351658 C-125.61458728 95.53905463 -109.4246021 66.8345506 -84.97010612 41.12304783 C-84.390028 40.49011814 -83.80994987 39.85718845 -83.21229362 39.20507908 C-63.04639411 17.87381352 -29.85385233 -0.01116449 0 0 Z" fill="#6B46C1" transform="translate(147.97010612487793,109.87695217132568)" />
  <path d="M0 0 C35.64 0 71.28 0 108 0 C107.67 0.66 107.34 1.32 107 2 C72.35 2 37.7 2 2 2 C2 87.47 2 172.94 2 261 C1.34 261 0.68 261 0 261 C0 174.87 0 88.74 0 0 Z" fill="#FEFEFE" transform="translate(369,129)" />
</svg>
